<?xml version="1.0" encoding="UTF-8"?>
<svg viewBox="0 0 800 600" xmlns="http://www.w3.org/2000/svg">
    <text x="400" y="40" font-family="Arial" font-size="20" fill="#333" text-anchor="middle">Deployment Troubleshooting Flow</text>
    
    <rect x="350" y="60" width="100" height="40" fill="#4285f4" stroke="#2962c4" stroke-width="2" rx="5"/>
    <text x="400" y="85" font-family="Arial" font-size="14" fill="white" text-anchor="middle">Issue Detected</text>
    
    <rect x="300" y="140" width="200" height="50" fill="#34a853" stroke="#1e8e3e" stroke-width="2" rx="5"/>
    <text x="400" y="170" font-family="Arial" font-size="14" fill="white" text-anchor="middle">kubectl get pods</text>
    
    <rect x="100" y="240" width="150" height="50" fill="#fbbc05" stroke="#f09a0a" stroke-width="2" rx="5"/>
    <text x="175" y="265" font-family="Arial" font-size="12" fill="white" text-anchor="middle">Pending</text>
    
    <rect x="325" y="240" width="150" height="50" fill="#fbbc05" stroke="#f09a0a" stroke-width="2" rx="5"/>
    <text x="400" y="265" font-family="Arial" font-size="12" fill="white" text-anchor="middle">CrashLoopBackOff</text>
    
    <rect x="550" y="240" width="150" height="50" fill="#fbbc05" stroke="#f09a0a" stroke-width="2" rx="5"/>
    <text x="625" y="265" font-family="Arial" font-size="12" fill="white" text-anchor="middle">ImagePullBackOff</text>
    
    <rect x="100" y="340" width="150" height="60" fill="#ea4335" stroke="#c52a1a" stroke-width="2" rx="5"/>
    <text x="175" y="360" font-family="Arial" font-size="11" fill="white" text-anchor="middle">Check Resources</text>
    <text x="175" y="375" font-family="Arial" font-size="11" fill="white" text-anchor="middle">describe nodes</text>
    <text x="175" y="390" font-family="Arial" font-size="11" fill="white" text-anchor="middle">describe pod</text>
    
    <rect x="325" y="340" width="150" height="60" fill="#ea4335" stroke="#c52a1a" stroke-width="2" rx="5"/>
    <text x="400" y="360" font-family="Arial" font-size="11" fill="white" text-anchor="middle">Check Logs</text>
    <text x="400" y="375" font-family="Arial" font-size="11" fill="white" text-anchor="middle">logs pod-name</text>
    <text x="400" y="390" font-family="Arial" font-size="11" fill="white" text-anchor="middle">describe pod</text>
    
    <rect x="550" y="340" width="150" height="60" fill="#ea4335" stroke="#c52a1a" stroke-width="2" rx="5"/>
    <text x="625" y="360" font-family="Arial" font-size="11" fill="white" text-anchor="middle">Check Registry</text>
    <text x="625" y="375" font-family="Arial" font-size="11" fill="white" text-anchor="middle">Check Pull Secret</text>
    <text x="625" y="390" font-family="Arial" font-size="11" fill="white" text-anchor="middle">Check Image Name</text>
    
    <path d="M 400 100 L 400 140" stroke="#666" stroke-width="2"/>
    <path d="M 400 190 L 400 220" stroke="#666" stroke-width="2"/>
    <path d="M 400 220 L 175 240" stroke="#666" stroke-width="2"/>
    <path d="M 400 220 L 400 240" stroke="#666" stroke-width="2"/>
    <path d="M 400 220 L 625 240" stroke="#666" stroke-width="2"/>
    <path d="M 175 290 L 175 340" stroke="#666" stroke-width="2"/>
    <path d="M 400 290 L 400 340" stroke="#666" stroke-width="2"/>
    <path d="M 625 290 L 625 340" stroke="#666" stroke-width="2"/>
</svg>